# xmcd
#
# Track frame offsets:
#	150
#	24546
#	43053
#	60038
#	89350
#	132129
#	151816
#	172497
#	184731
#	197428
#	211108
#	233152
#
# Disc length: 3424 seconds
#
# Revision: 0
# Processed by: cddbd v1.5.1PL0 Copyright (c) Steve Scherf et al.
# Submitted via: EasyCDDAExtractor 8.2.1.1
#
DISCID=960d5e0c
DTITLE=Various Artist - Clubber's Guide to... Deep House Disk One
DYEAR=2005
DGENRE=House
TTITLE0=Ladies Of The Supremes - Hit And Miss (Richard Gow Mix)
TTITLE1=Funkstar De Luxe vs. Tom Jones - She's A Lady
TTITLE2=PDQ - Eu Fonk (Original Mix)
TTITLE3=Rinneradio - Kuvala (Spanish Fly Vocal Lounge Mix)
TTITLE4=Brenda K. Starr - A Brighter Day
TTITLE5=Funkstar De Luxe vs. Laid Back - White Horse
TTITLE6=Dead Or Alive - Sex Drive (Scream Mix)
TTITLE7=Anita Ward vs. Ringo Bros - Ring My Bell (Ring Ny Bell Mix)
TTITLE8=George McCrae - Look At You (Camp Sunshine Mix)
TTITLE9=Nature (tm) - Le Mans
TTITLE10=Kenny Nino vs. Nick Straker - A Little Bit Of Jazz (A-side Disco Club
TTITLE10=)
TTITLE11=Morex - In Love
EXTD=(c) and (r)  EDE Electronic Dance Essential\nVester Voldgade 87, 4th floo
EXTD=r\nDK-1552 Copenhagen V, Denmark\n
EXTT0=
EXTT1=
EXTT2=
EXTT3=
EXTT4=
EXTT5=
EXTT6=
EXTT7=
EXTT8=
EXTT9=
EXTT10=
EXTT11=
PLAYORDER=
